<?xml version="1.0" encoding="utf-8"?>
<!-- Generator: Adobe Illustrator 23.0.2, SVG Export Plug-In . SVG Version: 6.00 Build 0)  -->
<svg version="1.1" id="Capa_1" xmlns="http://www.w3.org/2000/svg" xmlns:xlink="http://www.w3.org/1999/xlink" x="0px" y="0px"
	 viewBox="0 0 566.9 566.9" style="enable-background:new 0 0 566.9 566.9;" xml:space="preserve">
<g>
	<g>
		<g>
			<path d="M283.5,340.2c31.3,0,56.8-25.5,56.8-56.7c0-12.4-4-23.8-10.7-33.1c-10.3-14.3-27.1-23.7-46-23.7
				c-18.9,0-35.7,9.4-46,23.7c-6.7,9.3-10.7,20.7-10.7,33.1C226.7,314.8,252.2,340.2,283.5,340.2z"/>
			<polygon points="407.4,214 407.4,166.5 407.4,159.4 400.3,159.4 352.7,159.6 352.9,214.2 			"/>
			<path d="M283.5,0C127.2,0,0,127.2,0,283.5c0,156.3,127.2,283.5,283.5,283.5c156.3,0,283.5-127.2,283.5-283.5
				C566.9,127.2,439.8,0,283.5,0z M444.7,250.4v132c0,34.4-28,62.3-62.3,62.3H184.6c-34.4,0-62.3-27.9-62.3-62.3v-132v-65.8
				c0-34.4,27.9-62.3,62.3-62.3h197.8c34.4,0,62.3,27.9,62.3,62.3V250.4z"/>
			<path d="M371.6,283.5c0,48.6-39.6,88.2-88.2,88.2s-88.2-39.6-88.2-88.2c0-11.7,2.3-22.9,6.5-33.1h-48.1v132
				c0,17.1,13.9,30.9,30.9,30.9h197.8c17,0,30.9-13.8,30.9-30.9v-132h-48.1C369.3,260.6,371.6,271.8,371.6,283.5z"/>
		</g>
	</g>
</g>
</svg>
