<?xml version="1.0" encoding="utf-8"?>
<!-- Generator: Adobe Illustrator 23.0.2, SVG Export Plug-In . SVG Version: 6.00 Build 0)  -->
<svg version="1.1" id="Capa_1" xmlns="http://www.w3.org/2000/svg" xmlns:xlink="http://www.w3.org/1999/xlink" x="0px" y="0px"
	 viewBox="0 0 566.9 566.9" style="enable-background:new 0 0 566.9 566.9;" xml:space="preserve">
<style type="text/css">
	.st0{fill:url(#SVGID_1_);}
	.st1{fill:url(#SVGID_2_);}
	.st2{fill:url(#SVGID_3_);}
	.st3{fill:url(#SVGID_4_);}
</style>
<g>
	<g>
		<g>
			<linearGradient id="SVGID_1_" gradientUnits="userSpaceOnUse" x1="476.0917" y1="513.8729" x2="231.0918" y2="220.8729">
				<stop  offset="0" style="stop-color:#E09B3D"/>
				<stop  offset="0.3" style="stop-color:#C74C4D"/>
				<stop  offset="0.6" style="stop-color:#C21975"/>
				<stop  offset="1" style="stop-color:#7024C4"/>
			</linearGradient>
			<path class="st0" d="M283.5,340.2c31.3,0,56.8-25.5,56.8-56.7c0-12.4-4-23.8-10.7-33.1c-10.3-14.3-27.1-23.7-46-23.7
				c-18.9,0-35.7,9.4-46,23.7c-6.7,9.3-10.7,20.7-10.7,33.1C226.7,314.8,252.2,340.2,283.5,340.2z"/>
			<linearGradient id="SVGID_2_" gradientUnits="userSpaceOnUse" x1="580.5683" y1="426.512" x2="335.5683" y2="133.512">
				<stop  offset="0" style="stop-color:#E09B3D"/>
				<stop  offset="0.3" style="stop-color:#C74C4D"/>
				<stop  offset="0.6" style="stop-color:#C21975"/>
				<stop  offset="1" style="stop-color:#7024C4"/>
			</linearGradient>
			<polygon class="st1" points="407.4,214 407.4,166.5 407.4,159.4 400.3,159.4 352.7,159.6 352.9,214.2 			"/>
			<linearGradient id="SVGID_3_" gradientUnits="userSpaceOnUse" x1="476.1147" y1="513.8538" x2="231.1147" y2="220.8538">
				<stop  offset="0" style="stop-color:#E09B3D"/>
				<stop  offset="0.3" style="stop-color:#C74C4D"/>
				<stop  offset="0.6" style="stop-color:#C21975"/>
				<stop  offset="1" style="stop-color:#7024C4"/>
			</linearGradient>
			<path class="st2" d="M283.5,0C127.2,0,0,127.2,0,283.5c0,156.3,127.2,283.5,283.5,283.5c156.3,0,283.5-127.2,283.5-283.5
				C566.9,127.2,439.8,0,283.5,0z M444.7,250.4v132c0,34.4-28,62.3-62.3,62.3H184.6c-34.4,0-62.3-27.9-62.3-62.3v-132v-65.8
				c0-34.4,27.9-62.3,62.3-62.3h197.8c34.4,0,62.3,27.9,62.3,62.3V250.4z"/>
			<linearGradient id="SVGID_4_" gradientUnits="userSpaceOnUse" x1="457.1478" y1="529.7135" x2="212.1478" y2="236.7135">
				<stop  offset="0" style="stop-color:#E09B3D"/>
				<stop  offset="0.3" style="stop-color:#C74C4D"/>
				<stop  offset="0.6" style="stop-color:#C21975"/>
				<stop  offset="1" style="stop-color:#7024C4"/>
			</linearGradient>
			<path class="st3" d="M371.6,283.5c0,48.6-39.6,88.2-88.2,88.2s-88.2-39.6-88.2-88.2c0-11.7,2.3-22.9,6.5-33.1h-48.1v132
				c0,17.1,13.9,30.9,30.9,30.9h197.8c17,0,30.9-13.8,30.9-30.9v-132h-48.1C369.3,260.6,371.6,271.8,371.6,283.5z"/>
		</g>
	</g>
</g>
</svg>
