<?xml version="1.0" encoding="utf-8"?>
<!-- Generator: Adobe Illustrator 23.0.2, SVG Export Plug-In . SVG Version: 6.00 Build 0)  -->
<svg version="1.1" id="Layer_1" xmlns="http://www.w3.org/2000/svg" xmlns:xlink="http://www.w3.org/1999/xlink" x="0px" y="0px"
	 viewBox="0 0 512 512" style="enable-background:new 0 0 512 512;" xml:space="preserve">
<style type="text/css">
	.st0{fill:#6C27B3;}
	.st1{fill:url(#SVGID_1_);}
	.st2{opacity:0.34;fill:#501A96;}
	.st3{fill:#FFFFFF;}
	.st4{fill:#D1D1D1;}
</style>
<circle class="st0" cx="256" cy="256" r="256"/>
<linearGradient id="SVGID_1_" gradientUnits="userSpaceOnUse" x1="0" y1="256" x2="512" y2="256">
	<stop  offset="0" style="stop-color:#E09B3D"/>
	<stop  offset="0.3" style="stop-color:#C74C4D"/>
	<stop  offset="0.6" style="stop-color:#C21975"/>
	<stop  offset="1" style="stop-color:#7024C4"/>
</linearGradient>
<circle class="st1" cx="256" cy="256" r="256"/>
<path class="st2" d="M374.7,132.9c-30.6,3.9-62.5,3.7-94.6,0.7c-44.8-3.4-110.3-24.1-134.5,17.2c-38.8,66.2-19.6,151-10.6,226.1
	l134.7,134.7c130.4-6.9,234.9-111.4,241.8-241.8L374.7,132.9z"/>
<g>
	<path class="st3" d="M315.2,109.5H196.8c-48.1,0-87.3,39.2-87.3,87.3v118.5c0,48.1,39.2,87.3,87.3,87.3h118.5
		c48.1,0,87.3-39.2,87.3-87.3V196.8C402.5,148.6,363.4,109.5,315.2,109.5L315.2,109.5z M373,315.2c0,31.9-25.9,57.8-57.8,57.8H196.8
		c-31.9,0-57.8-25.9-57.8-57.8V196.8c0-31.9,25.9-57.8,57.8-57.8h118.5c31.9,0,57.8,25.9,57.8,57.8L373,315.2L373,315.2z"/>
	<path class="st3" d="M256,180.2c-41.8,0-75.8,34-75.8,75.8c0,41.8,34,75.8,75.8,75.8s75.8-34,75.8-75.8S297.8,180.2,256,180.2
		L256,180.2z M256,302.3c-25.6,0-46.3-20.7-46.3-46.3s20.7-46.3,46.3-46.3s46.3,20.7,46.3,46.3C302.3,281.6,281.6,302.3,256,302.3
		L256,302.3z"/>
</g>
<g>
	<path class="st4" d="M350.1,180.8c0,10-8.1,18.2-18.2,18.2c-10,0-18.2-8.1-18.2-18.2c0-10,8.1-18.2,18.2-18.2
		C342,162.6,350.1,170.7,350.1,180.8L350.1,180.8z"/>
	<path class="st4" d="M315.2,109.5h-59.8v29.5h59.8c31.9,0,57.8,25.9,57.8,57.8v118.5c0,31.9-25.9,57.8-57.8,57.8h-59.8v29.5h59.8
		c48.1,0,87.3-39.2,87.3-87.3V196.8C402.5,148.6,363.4,109.5,315.2,109.5z"/>
	<path class="st4" d="M256,180.2c-0.2,0-0.4,0-0.6,0v29.5c0.2,0,0.4,0,0.6,0c25.6,0,46.3,20.7,46.3,46.3c0,25.6-20.7,46.3-46.3,46.3
		c-0.2,0-0.4,0-0.6,0v29.5c0.2,0,0.4,0,0.6,0c41.8,0,75.8-34,75.8-75.8C331.8,214.2,297.8,180.2,256,180.2z"/>
</g>
</svg>
