<?xml version="1.0" encoding="utf-8"?>
<!-- Generator: Adobe Illustrator 23.0.2, SVG Export Plug-In . SVG Version: 6.00 Build 0)  -->
<svg version="1.1" id="Capa_1" xmlns="http://www.w3.org/2000/svg" xmlns:xlink="http://www.w3.org/1999/xlink" x="0px" y="0px"
	 viewBox="0 0 455.7 455.7" style="enable-background:new 0 0 455.7 455.7;" xml:space="preserve">
<style type="text/css">
	.st0{clip-path:url(#SVGID_2_);fill:#00C200;}
	.st1{clip-path:url(#SVGID_2_);}
	.st2{fill:#FFFFFF;}
	.st3{fill:#00C500;}
</style>
<g>
	<defs>
		<circle id="SVGID_1_" cx="228" cy="228" r="227.7"/>
	</defs>
	<clipPath id="SVGID_2_">
		<use xlink:href="#SVGID_1_"  style="overflow:visible;"/>
	</clipPath>
	<rect y="0" class="st0" width="455.7" height="455.7"/>
	<g class="st1">
		<path class="st2" d="M393.3,219.6c0.8-4,1.1-7.4,1.3-10.1c0.3-4.4,0-10.9-0.2-13C390.4,126.1,317.3,70,227.8,70
			C135.7,70,61,129.4,61,202.7c0,67.3,63.1,123,144.8,131.5c5,0.5,8.6,5,8,10l-3.5,31.3c-0.8,7.1,6.6,12.3,13,9.2
			c69.1-33.3,110.3-67.6,135-97.3c4.5-5.4,19.1-25.9,22.1-31.3C386.9,244.7,391.2,232.5,393.3,219.6z"/>
		<path class="st3" d="M136.1,229.6v-55.9c0-4.7-3.8-8.5-8.5-8.5l0,0c-4.7,0-8.5,3.8-8.5,8.5v64.4c0,4.7,3.8,8.5,8.5,8.5h34.1
			c4.7,0,8.5-3.8,8.5-8.5l0,0c0-4.7-3.8-8.5-8.5-8.5H136.1z"/>
		<path class="st3" d="M188.7,246.7H185c-3.7,0-6.7-3-6.7-6.7v-68.1c0-3.7,3-6.7,6.7-6.7h3.7c3.7,0,6.7,3,6.7,6.7V240
			C195.4,243.7,192.4,246.7,188.7,246.7z"/>
		<path class="st3" d="M257.7,173.7v39.4c0,0-34.1-44.4-34.6-45c-1.6-1.8-4-3-6.7-2.9c-4.6,0.2-8.2,4.2-8.2,8.9v64.1
			c0,4.7,3.8,8.5,8.5,8.5l0,0c4.7,0,8.5-3.8,8.5-8.5V199c0,0,34.6,44.8,35.1,45.3c1.5,1.4,3.5,2.3,5.8,2.3c4.7,0,8.6-4.1,8.6-8.9
			v-64.1c0-4.7-3.8-8.5-8.5-8.5l0,0C261.5,165.2,257.7,169,257.7,173.7z"/>
		<path class="st3" d="M338.7,173.7L338.7,173.7c0-4.7-3.8-8.5-8.5-8.5h-34.1c-4.7,0-8.5,3.8-8.5,8.5v64.4c0,4.7,3.8,8.5,8.5,8.5
			h34.1c4.7,0,8.5-3.8,8.5-8.5l0,0c0-4.7-3.8-8.5-8.5-8.5h-25.6v-15.1h25.6c4.7,0,8.5-3.8,8.5-8.5l0,0c0-4.7-3.8-8.5-8.5-8.5h-25.6
			v-15.1h25.6C334.9,182.2,338.7,178.4,338.7,173.7z"/>
	</g>
</g>
</svg>
